# xmcd
#
# Track frame offsets:
#	150
#	13025
#	28048
#
# Disc length: 542 seconds
#
# Revision: 1
# Processed by: cddbd v1.5.2PL0 Copyright (c) Steve Scherf et al.
# Submitted via: EasyCDDAExtractor 10.0.6.1
#
DISCID=1a021c03
DTITLE=Various Artist - Halleljah Morning
DYEAR=1900
DGENRE=Gospel
TTITLE0=Powers Brothers - I'll Soon Be Home
TTITLE1=The Primitive Quartet - The Good Shepherd
TTITLE2=The Spencers - Hallelajah Morning
EXTD=
EXTT0=
EXTT1=
EXTT2=
PLAYORDER=
